<svg xmlns="http://www.w3.org/2000/svg" width="1600" height="900" viewBox="0 0 1600 900" role="img" aria-labelledby="title desc">
  <title id="title">Task Management System AWS Architecture</title>
  <desc id="desc">Serverless architecture with Route 53, CloudFront, private S3, Cognito, AppSync, Lambda, DynamoDB, CloudWatch, CodePipeline, CodeBuild, CloudFormation, and GitHub.</desc>
  <defs>
    <marker id="arrow" viewBox="0 0 10 10" refX="9" refY="5" markerWidth="8" markerHeight="8" orient="auto-start-reverse">
      <path d="M 0 0 L 10 5 L 0 10 z" fill="#202124"/>
    </marker>
    <style>
      .bg { fill: #f7f8fb; }
      .title { font: 700 30px Arial, sans-serif; fill: #111827; }
      .label { font: 600 18px Arial, sans-serif; fill: #111827; }
      .small { font: 500 14px Arial, sans-serif; fill: #374151; }
      .tiny { font: 500 12px Arial, sans-serif; fill: #4b5563; }
      .box { fill: #ffffff; stroke: #9ca3af; stroke-width: 2; rx: 8; }
      .aws { fill: #ffffff; stroke: #232f3e; stroke-width: 2.5; }
      .region { fill: #f8fafc; stroke: #6b7280; stroke-width: 1.5; stroke-dasharray: 8 6; }
      .group-blue { fill: #e8f1ff; stroke: #60a5fa; stroke-width: 1.5; stroke-dasharray: 6 5; }
      .group-green { fill: #e9f7ec; stroke: #6fcf97; stroke-width: 1.5; stroke-dasharray: 6 5; }
      .group-yellow { fill: #fff4cc; stroke: #f6c945; stroke-width: 1.5; stroke-dasharray: 6 5; }
      .group-red { fill: #ffe4e4; stroke: #f87171; stroke-width: 1.5; stroke-dasharray: 6 5; }
      .svc-purple { fill: #7c3aed; }
      .svc-pink { fill: #db2777; }
      .svc-orange { fill: #f97316; }
      .svc-green { fill: #65a30d; }
      .svc-blue { fill: #2563eb; }
      .svc-red { fill: #e11d48; }
      .svc-gray { fill: #4b5563; }
      .white { fill: #ffffff; }
      .line { stroke: #202124; stroke-width: 2; fill: none; marker-end: url(#arrow); }
      .thin { stroke: #202124; stroke-width: 1.6; fill: none; marker-end: url(#arrow); }
      .muted-line { stroke: #6b7280; stroke-width: 1.6; fill: none; marker-end: url(#arrow); }
      .dashed-line { stroke: #6b7280; stroke-width: 1.6; stroke-dasharray: 6 5; fill: none; marker-end: url(#arrow); }
    </style>
  </defs>

  <rect class="bg" x="0" y="0" width="1600" height="900"/>
  <rect x="650" y="18" width="300" height="44" fill="#e5e7eb" stroke="#9ca3af" stroke-width="2"/>
  <text class="title" x="800" y="49" text-anchor="middle">Task Management System</text>

  <rect class="aws" x="165" y="88" width="1368" height="760"/>
  <rect x="165" y="88" width="42" height="24" fill="#111827"/>
  <text x="186" y="105" text-anchor="middle" font-family="Arial, sans-serif" font-size="12" font-weight="700" fill="#ffffff">AWS</text>
  <text class="small" x="215" y="106">AWS Cloud</text>

  <rect class="region" x="225" y="300" width="1250" height="505"/>
  <rect x="225" y="300" width="28" height="24" fill="#4b5563"/>
  <text class="tiny" x="265" y="317">Region</text>

  <!-- External actors -->
  <circle cx="70" cy="194" r="18" fill="#ffffff" stroke="#111827" stroke-width="3"/>
  <path d="M70 212 L70 253 M38 253 C43 225 97 225 102 253 Z" fill="#ffffff" stroke="#111827" stroke-width="3"/>
  <text class="small" x="70" y="276" text-anchor="middle">User</text>
  <text class="small" x="70" y="294" text-anchor="middle">Browser</text>

  <rect x="12" y="608" width="120" height="250" fill="#ffffff" stroke="#6b7280" stroke-dasharray="5 4"/>
  <circle cx="72" cy="662" r="18" fill="#ffffff" stroke="#111827" stroke-width="3"/>
  <path d="M72 680 L72 720 M40 720 C45 692 99 692 104 720 Z" fill="#ffffff" stroke="#111827" stroke-width="3"/>
  <text class="small" x="72" y="746" text-anchor="middle">Developer</text>
  <path d="M72 778 L72 833" class="thin"/>
  <circle cx="72" cy="842" r="23" fill="#0ea5e9"/>
  <path d="M58 835 C57 827 65 824 72 830 C79 824 87 827 86 835 C89 840 86 849 78 851 L78 858 L66 858 L66 851 C58 849 55 840 58 835 Z" fill="#ffffff"/>
  <text class="small" x="72" y="881" text-anchor="middle">GitHub</text>

  <!-- Top delivery layer -->
  <rect class="box" x="450" y="120" width="120" height="96"/>
  <rect class="svc-purple" x="480" y="130" width="60" height="60" rx="8"/>
  <path d="M510 140 L528 150 L528 171 L510 181 L492 171 L492 150 Z" fill="none" stroke="#ffffff" stroke-width="3"/>
  <text class="white" x="510" y="166" text-anchor="middle" font-family="Arial" font-size="22" font-weight="700">53</text>
  <text class="small" x="510" y="207" text-anchor="middle">Route 53</text>

  <rect class="box" x="650" y="120" width="120" height="96"/>
  <rect class="svc-purple" x="680" y="130" width="60" height="60" rx="8"/>
  <circle cx="710" cy="160" r="24" fill="none" stroke="#ffffff" stroke-width="3"/>
  <path d="M686 160 H734 M710 136 C696 150 696 170 710 184 M710 136 C724 150 724 170 710 184" stroke="#ffffff" stroke-width="2" fill="none"/>
  <text class="small" x="710" y="207" text-anchor="middle">CloudFront</text>

  <rect class="box" x="940" y="120" width="190" height="112"/>
  <rect class="svc-green" x="1005" y="128" width="62" height="62" rx="8"/>
  <path d="M1016 142 C1016 133 1056 133 1056 142 L1052 178 C1050 186 1022 186 1020 178 Z" fill="none" stroke="#ffffff" stroke-width="3"/>
  <path d="M1016 142 C1016 151 1056 151 1056 142" fill="none" stroke="#ffffff" stroke-width="3"/>
  <text class="small" x="1035" y="214" text-anchor="middle">Private S3 Bucket</text>
  <text class="tiny" x="1035" y="232" text-anchor="middle">Static website assets</text>

  <rect class="box" x="600" y="218" width="96" height="88"/>
  <rect class="svc-red" x="624" y="226" width="48" height="48" rx="6"/>
  <path d="M648 236 C633 243 633 260 648 266 C663 260 663 243 648 236 Z" fill="none" stroke="#ffffff" stroke-width="2.5"/>
  <text class="small" x="648" y="294" text-anchor="middle">WAF</text>

  <rect class="box" x="715" y="218" width="130" height="88"/>
  <rect class="svc-red" x="756" y="226" width="48" height="48" rx="6"/>
  <path d="M766 238 H794 V266 H766 Z M780 244 L784 253 L794 254 L786 260 L789 269 L780 264 L771 269 L774 260 L766 254 L776 253 Z" fill="none" stroke="#ffffff" stroke-width="2"/>
  <text class="small" x="780" y="294" text-anchor="middle">Certificate</text>
  <text class="small" x="780" y="312" text-anchor="middle">Manager</text>

  <!-- Auth and API -->
  <rect class="box" x="405" y="330" width="124" height="100"/>
  <rect class="svc-red" x="437" y="340" width="60" height="60" rx="8"/>
  <path d="M451 382 V357 H471 M451 371 H467 M451 363 H463" stroke="#ffffff" stroke-width="3" fill="none"/>
  <circle cx="480" cy="358" r="8" fill="none" stroke="#ffffff" stroke-width="2.5"/>
  <path d="M468 382 C470 371 490 371 492 382" fill="none" stroke="#ffffff" stroke-width="2.5"/>
  <text class="small" x="467" y="418" text-anchor="middle">Cognito</text>

  <rect class="box" x="610" y="372" width="130" height="104"/>
  <rect class="svc-pink" x="645" y="382" width="60" height="60" rx="8"/>
  <circle cx="675" cy="412" r="21" fill="none" stroke="#ffffff" stroke-width="3"/>
  <circle cx="675" cy="394" r="4" fill="#ffffff"/>
  <circle cx="658" cy="422" r="4" fill="#ffffff"/>
  <circle cx="692" cy="422" r="4" fill="#ffffff"/>
  <path d="M675 398 L660 419 M675 398 L690 419 M662 422 H688" stroke="#ffffff" stroke-width="2.4"/>
  <text class="small" x="675" y="462" text-anchor="middle">AppSync</text>

  <rect class="group-yellow" x="560" y="558" width="220" height="158"/>
  <text class="small" x="670" y="580" text-anchor="middle">Backend</text>
  <rect class="box" x="636" y="615" width="92" height="78"/>
  <rect class="svc-orange" x="660" y="625" width="48" height="48" rx="5"/>
  <path d="M672 666 L684 638 L696 666 M678 655 H690" stroke="#ffffff" stroke-width="4" fill="none"/>
  <text class="small" x="682" y="690" text-anchor="middle">Lambda</text>

  <rect class="group-green" x="1020" y="540" width="210" height="260"/>
  <text class="small" x="1125" y="562" text-anchor="middle">Data</text>
  <rect class="box" x="1085" y="610" width="94" height="88"/>
  <rect class="svc-pink" x="1108" y="620" width="48" height="48" rx="5"/>
  <path d="M1116 633 C1116 626 1148 626 1148 633 V656 C1148 663 1116 663 1116 656 Z" fill="none" stroke="#ffffff" stroke-width="2.4"/>
  <path d="M1116 633 C1116 640 1148 640 1148 633 M1116 644 C1116 651 1148 651 1148 644" fill="none" stroke="#ffffff" stroke-width="2.4"/>
  <text class="small" x="1132" y="690" text-anchor="middle">DynamoDB</text>
  <path d="M1132 700 L1132 735" class="thin"/>
  <path d="M1108 752 C1108 733 1126 724 1142 732 M1142 732 L1142 717 M1142 732 L1156 727" fill="none" stroke="#0ea5e9" stroke-width="3"/>
  <circle cx="1132" cy="758" r="23" fill="none" stroke="#0ea5e9" stroke-width="3"/>
  <text class="small" x="1132" y="800" text-anchor="middle">Point-in-Time Recovery</text>
  <text class="tiny" x="1132" y="818" text-anchor="middle">PITR enabled</text>

  <rect class="group-red" x="1250" y="300" width="190" height="210"/>
  <text class="small" x="1345" y="322" text-anchor="middle">Monitoring</text>
  <text class="small" x="1345" y="340" text-anchor="middle">and Observability</text>
  <rect class="box" x="1300" y="372" width="90" height="92"/>
  <rect class="svc-pink" x="1321" y="382" width="48" height="48" rx="5"/>
  <path d="M1331 410 C1323 409 1321 396 1333 394 C1336 382 1354 382 1357 395 C1367 394 1372 407 1363 414 C1360 421 1343 421 1331 410 Z" fill="none" stroke="#ffffff" stroke-width="2.2"/>
  <circle cx="1355" cy="410" r="9" fill="none" stroke="#ffffff" stroke-width="2.2"/>
  <path d="M1362 417 L1370 425" stroke="#ffffff" stroke-width="2.2"/>
  <text class="small" x="1345" y="452" text-anchor="middle">CloudWatch</text>
  <text class="tiny" x="1345" y="472" text-anchor="middle">Logs | Metrics | Alarms</text>

  <!-- CI/CD -->
  <rect class="group-blue" x="225" y="440" width="185" height="305"/>
  <text class="small" x="318" y="465" text-anchor="middle">CI/CD Pipeline</text>
  <rect class="box" x="278" y="492" width="80" height="68"/>
  <rect class="svc-purple" x="298" y="502" width="40" height="40" rx="5"/>
  <path d="M306 516 H330 M306 528 H330 M318 510 L310 534 M323 510 L331 534" stroke="#ffffff" stroke-width="2"/>
  <text class="tiny" x="318" y="555" text-anchor="middle">CodePipeline</text>
  <path d="M318 560 L318 596" class="thin"/>
  <rect class="box" x="278" y="596" width="80" height="68"/>
  <rect class="svc-purple" x="298" y="606" width="40" height="40" rx="5"/>
  <path d="M307 615 H330 L335 628 L326 641 H303 L298 628 Z M307 620 L317 628 L307 636 M321 636 H331" fill="none" stroke="#ffffff" stroke-width="2"/>
  <text class="tiny" x="318" y="659" text-anchor="middle">CodeBuild</text>
  <path d="M318 664 L318 700" class="thin"/>
  <rect class="box" x="265" y="700" width="106" height="70"/>
  <rect class="svc-pink" x="298" y="710" width="40" height="40" rx="5"/>
  <path d="M307 720 H329 V743 H307 Z M312 725 H324 M312 732 H324 M312 739 H320" stroke="#ffffff" stroke-width="2" fill="none"/>
  <text class="tiny" x="318" y="764" text-anchor="middle">CloudFormation</text>

  <!-- Flows -->
  <path d="M102 194 H450" class="line"/>
  <text class="tiny" x="280" y="184" text-anchor="middle">Website request / DNS lookup</text>
  <path d="M570 168 H650" class="line"/>
  <path d="M770 168 H940" class="line"/>
  <path d="M666 218 L692 190" class="thin"/>
  <path d="M780 218 L724 190" class="thin"/>

  <path d="M102 253 H405" class="thin"/>
  <text class="tiny" x="270" y="244" text-anchor="middle">Login / JWT</text>
  <path d="M529 380 H610" class="thin"/>
  <text class="tiny" x="570" y="368" text-anchor="middle">JWT auth</text>

  <path d="M102 225 H610" class="line"/>
  <text class="tiny" x="360" y="215" text-anchor="middle">GraphQL query / mutation / subscription + JWT</text>
  <path d="M675 476 L682 615" class="line"/>
  <path d="M728 654 H1085" class="line"/>
  <path d="M1132 610 C1132 520 1210 420 1300 420" class="muted-line"/>
  <path d="M740 424 H1300" class="muted-line"/>
  <path d="M728 632 C920 632 1120 520 1300 452" class="muted-line"/>

  <path d="M95 842 H225" class="line"/>
  <path d="M371 735 H520 C520 700 548 682 636 670" class="dashed-line"/>
  <path d="M371 735 H504 C504 395 610 424 610 424" class="dashed-line"/>
  <path d="M371 735 H508 C508 330 467 330 467 330" class="dashed-line"/>
  <path d="M371 735 H980 C980 698 1085 690 1085 654" class="dashed-line"/>
  <path d="M371 735 H1215 C1215 480 1300 452 1300 452" class="dashed-line"/>
  <path d="M371 735 H910 C910 240 940 204 940 184" class="dashed-line"/>
  <text class="tiny" x="490" y="720">Deploy infrastructure and application changes</text>
</svg>
